# xmcd CD database file
#
# Track frame offsets:
#	150
#	15167
#	29361
#	42317
#	52831
#	63202
#	76980
#	93437
#	103806
#	119238
#	130528
#	143196
#	155613
#	168161
#
# Disc length: 2433 seconds
#
# Revision: 0
# Processed by: cddbd v1.5.2PL0 Copyright (c) Steve Scherf et al.
# Submitted via: CDex 1.70beta2
#
DISCID=ad097f0e
DTITLE=Edson e Hudson - Na Moda do Brasil (Ao Vivo)
DYEAR=2007
DGENRE=Sertanejo
TTITLE0=Viva a Vida
TTITLE1=As Andorinhas
TTITLE2=Bicho Bom é Mulher
TTITLE3=Do Mundo Nada se Leva
TTITLE4=O Doutor e a Empregada
TTITLE5=Viola Está Chorando
TTITLE6=Vá Pro Inferno Com Seu Amor
TTITLE7=Quebradas da Noite
TTITLE8=Blusa Vermelha
TTITLE9=Estrada da Vida
TTITLE10=Ainda Ontem Chorei de Saudades
TTITLE11=Saudade da Minha Terra
TTITLE12=Bobeou a Gente Pimba
TTITLE13=Hoje Eu Não Posso Ir
EXTD=YEAR: 2007
EXTT0=
EXTT1=
EXTT2=
EXTT3=
EXTT4=
EXTT5=
EXTT6=
EXTT7=
EXTT8=
EXTT9=
EXTT10=
EXTT11=
EXTT12=
EXTT13=
PLAYORDER=
